HIERARCHY
ROOT Hips
{
	OFFSET 0.000000 0.000000 0.000000
	CHANNELS 6 Xposition Yposition Zposition Zrotation Yrotation Xrotation 
	JOINT LHipJoint
	{
		OFFSET 0.000000 0.000000 0.000000
		CHANNELS 3 Zrotation Yrotation Xrotation
		JOINT LeftUpLeg
		{
			OFFSET 1.363060 -1.794630 0.839290
			CHANNELS 3 Zrotation Yrotation Xrotation
			JOINT LeftLeg
			{
				OFFSET 2.448110 -6.726130 0.000000
				CHANNELS 3 Zrotation Yrotation Xrotation
				JOINT LeftFoot
				{
					OFFSET 2.562200 -7.039590 0.000000
					CHANNELS 3 Zrotation Yrotation Xrotation
					JOINT LeftToeBase
					{
						OFFSET 0.157640 -0.433110 2.322550
						CHANNELS 3 Zrotation Yrotation Xrotation
						End Site
						{
							OFFSET 0.000000 0.000000 0.000000
						}
					}
				}
			}
		}
	}
	JOINT RHipJoint
	{
		OFFSET 0.000000 0.000000 0.000000
		CHANNELS 3 Zrotation Yrotation Xrotation
		JOINT RightUpLeg
		{
			OFFSET -1.305520 -1.794630 0.839290
			CHANNELS 3 Zrotation Yrotation Xrotation
			JOINT RightLeg
			{
				OFFSET -2.542530 -6.985550 0.000000
				CHANNELS 3 Zrotation Yrotation Xrotation
				JOINT RightFoot
				{
					OFFSET -2.568260 -7.056230 0.000000
					CHANNELS 3 Zrotation Yrotation Xrotation
					JOINT RightToeBase
					{
						OFFSET -0.164730 -0.452590 2.363150
						CHANNELS 3 Zrotation Yrotation Xrotation
						End Site
						{
							OFFSET 0.000000 0.000000 0.000000
						}
					}
				}
			}
		}
	}
	JOINT LowerBack
	{
		OFFSET 0.000000 0.000000 0.000000
		CHANNELS 3 Zrotation Yrotation Xrotation
		JOINT Spine
		{
			OFFSET 0.028270 2.035590 -0.193380
			CHANNELS 3 Zrotation Yrotation Xrotation
			JOINT Spine1
			{
				OFFSET 0.056720 2.048850 -0.042750
				CHANNELS 3 Zrotation Yrotation Xrotation
				JOINT Neck
				{
					OFFSET 0.000000 0.000000 0.000000
					CHANNELS 3 Zrotation Yrotation Xrotation
					JOINT Neck1
					{
						OFFSET -0.054170 1.746240 0.172020
						CHANNELS 3 Zrotation Yrotation Xrotation
						JOINT Head
						{
							OFFSET 0.104070 1.761360 -0.123970
							CHANNELS 3 Zrotation Yrotation Xrotation
							End Site
							{
								OFFSET 0.000000 0.000000 0.000000
							}
						}
					}
				}
				JOINT LeftShoulder
				{
					OFFSET 0.000000 0.000000 0.000000
					CHANNELS 3 Zrotation Yrotation Xrotation
					JOINT LeftArm
					{
						OFFSET 3.362410 1.200890 -0.311210
						CHANNELS 3 Zrotation Yrotation Xrotation
						JOINT LeftForeArm
						{
							OFFSET 4.983000 -0.000000 -0.000000
							CHANNELS 3 Zrotation Yrotation Xrotation
							JOINT LeftHand
							{
								OFFSET 3.483560 -0.000000 -0.000000
								CHANNELS 3 Zrotation Yrotation Xrotation
								JOINT LeftFingerBase
								{
									OFFSET 0.000000 0.000000 0.000000
									CHANNELS 3 Zrotation Yrotation Xrotation
									JOINT LeftHandIndex1
									{
										OFFSET 0.715260 -0.000000 -0.000000
										CHANNELS 3 Zrotation Yrotation Xrotation
										End Site
										{
											OFFSET 0.000000 0.000000 0.000000
										}
									}
								}
								JOINT LThumb
								{
									OFFSET 0.000000 0.000000 0.000000
									CHANNELS 3 Zrotation Yrotation Xrotation
									End Site
									{
										OFFSET 0.000000 0.000000 0.000000
									}
								}
							}
						}
					}
				}
				JOINT RightShoulder
				{
					OFFSET 0.000000 0.000000 0.000000
					CHANNELS 3 Zrotation Yrotation Xrotation
					JOINT RightArm
					{
						OFFSET -3.136600 1.374050 -0.404650
						CHANNELS 3 Zrotation Yrotation Xrotation
						JOINT RightForeArm
						{
							OFFSET -5.241900 -0.000000 -0.000000
							CHANNELS 3 Zrotation Yrotation Xrotation
							JOINT RightHand
							{
								OFFSET -3.444170 -0.000000 -0.000000
								CHANNELS 3 Zrotation Yrotation Xrotation
								JOINT RightFingerBase
								{
									OFFSET 0.000000 0.000000 0.000000
									CHANNELS 3 Zrotation Yrotation Xrotation
									JOINT RightHandIndex1
									{
										OFFSET -0.622530 -0.000000 -0.000000
										CHANNELS 3 Zrotation Yrotation Xrotation
										End Site
										{
											OFFSET 0.000000 0.000000 0.000000
										}
									}
								}
								JOINT RThumb
								{
									OFFSET 0.000000 0.000000 0.000000
									CHANNELS 3 Zrotation Yrotation Xrotation
									End Site
									{
										OFFSET 0.000000 0.000000 0.000000
									}
								}
							}
						}
					}
				}
			}
		}
	}
}
MOTION
Frames: 5
Frame Time: 0.008333
1.825174 18.006065 0.886202 135.598963 89.596791 149.653695 -2.894973 1.043588 1.838301 -14.260929 1.619000 -18.105924 0.867324 4.859099 13.948481 0.790975 -1.261609 2.135710 2.305800 -9.475900 -27.295600 -2.204844 -2.390631 -0.124047 22.659805 -6.142657 -13.146333 -0.969916 -0.841472 5.410664 -0.868482 11.777720 5.595685 -0.330700 3.695900 -10.222800 2.765318 1.017997 -10.908378 1.944403 0.505830 -1.895075 -4.135417 0.579770 3.973328 -2.158507 -1.471240 -21.192972 5.026012 -1.320768 12.154349 -0.690900 -0.190800 7.637600 0.433740 -7.116981 1.532812 -85.649191 3.785716 12.351513 28.366811 -34.484624 -7.691535 -2.987479 1.885352 -169.167155 40.175611 -21.542980 -15.015200 -7.125000 0.000000 0.000000 5.133700 4.482300 -4.736200 0.528766 9.173050 2.949395 87.753153 -2.822275 10.674837 -33.196968 40.150533 -7.429320 3.567176 0.424381 -161.389442 -29.068603 -9.201215 3.717800 7.125000 0.000000 0.000000 0.863400 -38.538100 0.137400 
1.823230 18.005385 0.885522 134.988566 89.580705 149.076819 -2.886506 1.042506 1.834868 -14.285710 1.593553 -18.095973 0.863764 4.838621 13.898886 0.799757 -1.305505 2.092388 2.201500 -9.273700 -26.655300 -2.194678 -2.392365 -0.116889 22.644619 -6.103454 -13.242563 -0.974387 -0.877134 5.500248 -0.867934 11.764529 5.595431 -0.344100 3.769100 -10.428000 2.787037 1.016564 -10.925544 1.919002 0.495650 -1.892120 -4.139551 0.575923 3.989400 -2.091013 -1.428862 -21.111365 4.956757 -1.284826 12.071084 -0.715400 -0.181200 7.604100 0.432786 -7.128306 1.532727 -85.611861 3.721884 12.370602 28.382328 -34.499983 -7.698743 -2.986233 1.884956 -169.280751 40.108792 -21.614042 -15.024200 -7.125000 0.000000 0.000000 5.083100 4.424300 -4.694700 0.539833 9.167679 2.950705 87.743960 -2.875472 10.658732 -33.327085 40.250805 -7.482731 3.552632 0.413261 -161.380749 -28.942753 -9.123324 3.668500 7.125000 0.000000 0.000000 0.958600 -38.459200 0.154400 
1.822939 18.005968 0.883092 134.434189 89.536162 148.526868 -2.877726 1.039986 1.831282 -14.345173 1.585839 -18.115578 0.869189 4.849558 13.940974 0.805160 -1.335361 2.033302 2.160600 -9.192900 -26.400800 -2.183734 -2.394183 -0.120121 22.581016 -6.181260 -13.169874 -0.965544 -0.816980 5.328804 -0.864725 11.737563 5.677310 -0.322400 3.649900 -10.093800 2.810837 1.021959 -10.911147 1.882701 0.496436 -1.919412 -4.152424 0.576434 3.983462 -2.113204 -1.420571 -21.041056 4.977155 -1.275225 12.065907 -0.706100 -0.175800 7.592900 0.432307 -7.130959 1.539263 -85.480444 3.721888 12.731507 28.455492 -34.573889 -7.745428 -2.999321 1.892466 -169.555947 40.271235 -21.846537 -15.250700 -7.125000 0.000000 0.000000 5.136000 4.122200 -4.773100 0.552575 9.165722 2.952875 87.762247 -2.923395 10.403426 -33.418464 40.335551 -7.547869 3.586852 0.411813 -161.519583 -29.327630 -8.973852 3.650500 7.125000 0.000000 0.000000 0.647800 -38.312400 0.106700 
1.821578 18.006745 0.881829 136.088737 89.565769 150.183967 -2.906784 1.039270 1.837081 -14.299938 1.698067 -18.209267 0.870216 4.867866 13.976036 0.828892 -1.437024 2.087626 2.192400 -9.255900 -26.599200 -2.218096 -2.391932 -0.135647 22.644861 -6.221583 -13.074865 -0.957673 -0.751730 5.166112 -0.862581 11.706278 5.716830 -0.328500 3.683900 -10.189000 2.865892 1.020206 -10.864113 1.910065 0.500504 -1.972656 -4.193139 0.581520 3.950795 -2.102383 -1.406973 -20.991773 4.970640 -1.259472 12.126877 -0.707000 -0.164600 7.601600 0.429733 -7.121117 1.547573 -85.338972 3.765612 13.101080 28.523951 -34.639119 -7.785861 -3.007733 1.892899 -169.853584 40.304522 -22.026170 -15.378000 -7.125000 0.000000 0.000000 5.123500 3.915800 -4.781200 0.549744 9.168643 2.955860 87.756192 -2.910215 10.211620 -33.389107 40.324892 -7.562189 3.639815 0.396805 -161.756043 -29.804042 -8.646392 3.558400 7.125000 0.000000 0.000000 0.270900 -37.982300 0.046800 
1.820023 18.007426 0.881829 136.251605 89.601550 150.359872 -2.906231 1.038465 1.836045 -14.276932 1.736446 -18.265846 0.873635 4.883499 14.018590 0.840939 -1.491927 2.075794 2.181600 -9.234500 -26.531700 -2.221473 -2.391297 -0.143522 22.667540 -6.249374 -12.962165 -0.947264 -0.669777 4.945036 -0.857623 11.644842 5.832182 -0.329100 3.686800 -10.197000 2.889887 1.028172 -10.842214 1.923697 0.512763 -2.003392 -4.202515 0.586112 3.931563 -2.091071 -1.435477 -21.017201 4.988259 -1.294160 12.273637 -0.705800 -0.170200 7.643100 0.426468 -7.111233 1.551461 -85.258215 3.758786 13.244000 28.542253 -34.653791 -7.795725 -3.012115 1.888678 -169.942162 40.323921 -22.028410 -15.389400 -7.125000 0.000000 0.000000 5.133900 3.907500 -4.791800 0.548665 9.176894 2.961084 87.751096 -2.920043 10.141312 -33.403268 40.337135 -7.573387 3.653290 0.373811 -161.749475 -29.848561 -8.439896 3.467500 7.125000 0.000000 0.000000 0.238700 -37.770000 0.042500 
